<?xml version="1.0" encoding="utf-8"?>
<!-- Generator: Adobe Illustrator 23.0.3, SVG Export Plug-In . SVG Version: 6.00 Build 0)  -->
<svg version="1.1" xmlns="http://www.w3.org/2000/svg" xmlns:xlink="http://www.w3.org/1999/xlink" x="0px" y="0px"
	 viewBox="0 0 200 200" style="enable-background:new 0 0 200 200;" xml:space="preserve">
<style type="text/css">
	.st0{display:none;}
	.st1{display:inline;}
	.st2{fill:none;stroke:#000000;stroke-miterlimit:10;}
	.st3{display:inline;fill:none;stroke:#000000;stroke-width:5.6693;stroke-miterlimit:10;}
	.st4{fill:#FFFFFF;}
	.st5{fill-rule:evenodd;clip-rule:evenodd;fill:none;stroke:#000000;stroke-width:5.6693;stroke-miterlimit:10;}
	.st6{fill:none;stroke:#000000;stroke-width:5.6693;stroke-miterlimit:10;}
</style>
<g id="圖層_1" class="st0">
</g>
<g id="圖層_2">
	<rect y="0.33" width="200" height="200"/>
	<g>
		<g>
			<polygon class="st4" points="138.32,199.7 77.39,99.49 22.58,99.49 22.58,94.17 80.38,94.17 133,180.71 133,97.11 76.61,4.37 
				81.16,1.61 138.32,95.62 			"/>
		</g>
	</g>
	<g>
		<path class="st4" d="M78.89,0.33h-58.5v190.92l5.32,8.75V5.65h53.18c24.41,0,44.26,19.86,44.26,44.26s-19.86,44.26-44.26,44.26
			v5.32c27.34,0,49.58-22.24,49.58-49.58S106.23,0.33,78.89,0.33z"/>
	</g>
	<g>
		<polygon class="st4" points="191.5,0 133.86,94.51 138.4,97.28 191.5,10.22 		"/>
	</g>
</g>
</svg>
